<?xml version="1.0" encoding="UTF-8" standalone="no"?>
<!DOCTYPE svg PUBLIC "-//W3C//DTD SVG 1.1//EN"
 "http://www.w3.org/Graphics/SVG/1.1/DTD/svg11.dtd">
<!-- Generated by graphviz version 2.40.1 (20161225.0304)
 -->
<!-- Title: G Pages: 1 -->
<svg width="453pt" height="355pt"
 viewBox="0.00 0.00 452.59 354.83" xmlns="http://www.w3.org/2000/svg" xmlns:xlink="http://www.w3.org/1999/xlink">
<g id="graph0" class="graph" transform="scale(1 1) rotate(0) translate(4 350.8313)">
<title>G</title>
<polygon fill="#ffffff" stroke="transparent" points="-4,4 -4,-350.8313 448.5935,-350.8313 448.5935,4 -4,4"/>
<!-- pitch -->
<g id="node1" class="node">
<title>pitch</title>
<ellipse fill="none" stroke="#000000" cx="30.3475" cy="-18" rx="30.1958" ry="18"/>
<text text-anchor="middle" x="30.3475" y="-13.8" font-family="Times,serif" font-size="14.00" fill="#000000">pitch</text>
</g>
<!-- note -->
<g id="node6" class="node">
<title>note</title>
<ellipse fill="none" stroke="#000000" cx="203.3475" cy="-90" rx="27.8286" ry="18"/>
<text text-anchor="middle" x="203.3475" y="-85.8" font-family="Times,serif" font-size="14.00" fill="#000000">note</text>
</g>
<!-- pitch&#45;&gt;note -->
<g id="edge1" class="edge">
<title>pitch&#45;&gt;note</title>
<path fill="none" stroke="#000000" d="M54.397,-28.9964C59.6385,-31.3443 65.1665,-33.7834 70.3475,-36 104.0175,-50.4051 142.8577,-66.066 169.8375,-76.7943"/>
<polygon fill="#000000" stroke="#000000" points="168.6233,-80.0779 179.2092,-80.5122 171.2046,-73.5712 168.6233,-80.0779"/>
</g>
<!-- onset -->
<g id="node2" class="node">
<title>onset</title>
<ellipse fill="none" stroke="#000000" cx="110.3475" cy="-18" rx="31.339" ry="18"/>
<text text-anchor="middle" x="110.3475" y="-13.8" font-family="Times,serif" font-size="14.00" fill="#000000">onset</text>
</g>
<!-- onset&#45;&gt;note -->
<g id="edge2" class="edge">
<title>onset&#45;&gt;note</title>
<path fill="none" stroke="#000000" d="M129.1674,-32.5703C143.0501,-43.3181 162.1081,-58.0728 177.4306,-69.9353"/>
<polygon fill="#000000" stroke="#000000" points="175.4523,-72.83 185.5022,-76.1842 179.7375,-67.2949 175.4523,-72.83"/>
</g>
<!-- duration -->
<g id="node3" class="node">
<title>duration</title>
<ellipse fill="none" stroke="#000000" cx="203.3475" cy="-18" rx="43.4396" ry="18"/>
<text text-anchor="middle" x="203.3475" y="-13.8" font-family="Times,serif" font-size="14.00" fill="#000000">duration</text>
</g>
<!-- duration&#45;&gt;note -->
<g id="edge3" class="edge">
<title>duration&#45;&gt;note</title>
<path fill="none" stroke="#000000" d="M203.3475,-36.1686C203.3475,-43.869 203.3475,-53.0257 203.3475,-61.5834"/>
<polygon fill="#000000" stroke="#000000" points="199.8476,-61.5867 203.3475,-71.5867 206.8476,-61.5868 199.8476,-61.5867"/>
</g>
<!-- intensity -->
<g id="node4" class="node">
<title>intensity</title>
<ellipse fill="none" stroke="#000000" cx="309.3475" cy="-18" rx="44.0987" ry="18"/>
<text text-anchor="middle" x="309.3475" y="-13.8" font-family="Times,serif" font-size="14.00" fill="#000000">intensity</text>
</g>
<!-- intensity&#45;&gt;note -->
<g id="edge4" class="edge">
<title>intensity&#45;&gt;note</title>
<path fill="none" stroke="#000000" d="M286.3471,-33.6229C270.1695,-44.6115 248.4316,-59.3768 231.2605,-71.0402"/>
<polygon fill="#000000" stroke="#000000" points="229.0566,-68.3061 222.751,-76.8203 232.9898,-74.0967 229.0566,-68.3061"/>
</g>
<!-- timbre -->
<g id="node5" class="node">
<title>timbre</title>
<ellipse fill="none" stroke="#000000" cx="408.3475" cy="-18" rx="36.4936" ry="18"/>
<text text-anchor="middle" x="408.3475" y="-13.8" font-family="Times,serif" font-size="14.00" fill="#000000">timbre</text>
</g>
<!-- timbre&#45;&gt;note -->
<g id="edge5" class="edge">
<title>timbre&#45;&gt;note</title>
<path fill="none" stroke="#000000" d="M379.7145,-29.4369C373.9805,-31.6614 367.9862,-33.9405 362.3475,-36 319.8477,-51.523 270.4389,-68.0719 238.1194,-78.6972"/>
<polygon fill="#000000" stroke="#000000" points="236.6692,-75.4892 228.2569,-81.93 238.8497,-82.141 236.6692,-75.4892"/>
</g>
<!-- melody -->
<g id="node7" class="node">
<title>melody</title>
<ellipse fill="none" stroke="#000000" cx="152.3475" cy="-162" rx="40.0089" ry="18"/>
<text text-anchor="middle" x="152.3475" y="-157.8" font-family="Times,serif" font-size="14.00" fill="#000000">melody</text>
</g>
<!-- note&#45;&gt;melody -->
<g id="edge6" class="edge">
<title>note&#45;&gt;melody</title>
<path fill="none" stroke="#000000" d="M191.5189,-106.6992C185.3285,-115.4386 177.6119,-126.3326 170.6685,-136.1351"/>
<polygon fill="#000000" stroke="#000000" points="167.7476,-134.2035 164.8235,-144.3868 173.4598,-138.2496 167.7476,-134.2035"/>
</g>
<!-- harmony -->
<g id="node8" class="node">
<title>harmony</title>
<ellipse fill="none" stroke="#000000" cx="255.3475" cy="-162" rx="45.2285" ry="18"/>
<text text-anchor="middle" x="255.3475" y="-157.8" font-family="Times,serif" font-size="14.00" fill="#000000">harmony</text>
</g>
<!-- note&#45;&gt;harmony -->
<g id="edge7" class="edge">
<title>note&#45;&gt;harmony</title>
<path fill="none" stroke="#000000" d="M215.1471,-106.3379C221.4974,-115.1306 229.478,-126.1806 236.6513,-136.113"/>
<polygon fill="#000000" stroke="#000000" points="233.9938,-138.4112 242.6861,-144.4688 239.6685,-134.3128 233.9938,-138.4112"/>
</g>
<!-- part -->
<g id="node9" class="node">
<title>part</title>
<ellipse fill="none" stroke="#000000" cx="203.3475" cy="-234" rx="27" ry="18"/>
<text text-anchor="middle" x="203.3475" y="-229.8" font-family="Times,serif" font-size="14.00" fill="#000000">part</text>
</g>
<!-- melody&#45;&gt;part -->
<g id="edge8" class="edge">
<title>melody&#45;&gt;part</title>
<path fill="none" stroke="#000000" d="M164.6932,-179.4292C171.0774,-188.4422 178.9764,-199.5937 185.9666,-209.4623"/>
<polygon fill="#000000" stroke="#000000" points="183.1783,-211.5811 191.8146,-217.7183 188.8905,-207.535 183.1783,-211.5811"/>
</g>
<!-- harmony&#45;&gt;part -->
<g id="edge9" class="edge">
<title>harmony&#45;&gt;part</title>
<path fill="none" stroke="#000000" d="M242.7598,-179.4292C236.2504,-188.4422 228.1965,-199.5937 221.0692,-209.4623"/>
<polygon fill="#000000" stroke="#000000" points="218.1241,-207.5623 215.1065,-217.7183 223.7988,-211.6607 218.1241,-207.5623"/>
</g>
<!-- texture -->
<g id="node10" class="node">
<title>texture</title>
<ellipse fill="none" stroke="#000000" cx="143.3475" cy="-317.4156" rx="47.6731" ry="29.3315"/>
<text text-anchor="middle" x="143.3475" y="-321.6156" font-family="Times,serif" font-size="14.00" fill="#000000">texture</text>
<text text-anchor="middle" x="143.3475" y="-304.8156" font-family="Times,serif" font-size="14.00" fill="#000000">(vertical)</text>
</g>
<!-- part&#45;&gt;texture -->
<g id="edge10" class="edge">
<title>part&#45;&gt;texture</title>
<path fill="none" stroke="#000000" d="M191.4934,-250.4802C184.9619,-259.5608 176.5921,-271.197 168.6687,-282.2125"/>
<polygon fill="#000000" stroke="#000000" points="165.7325,-280.3007 162.7346,-290.4626 171.4152,-284.3882 165.7325,-280.3007"/>
</g>
<!-- form -->
<g id="node11" class="node">
<title>form</title>
<ellipse fill="none" stroke="#000000" cx="264.3475" cy="-317.4156" rx="55.0813" ry="29.3315"/>
<text text-anchor="middle" x="264.3475" y="-321.6156" font-family="Times,serif" font-size="14.00" fill="#000000">form</text>
<text text-anchor="middle" x="264.3475" y="-304.8156" font-family="Times,serif" font-size="14.00" fill="#000000">(horizonal)</text>
</g>
<!-- part&#45;&gt;form -->
<g id="edge11" class="edge">
<title>part&#45;&gt;form</title>
<path fill="none" stroke="#000000" d="M215.3991,-250.4802C221.9289,-259.4095 230.2657,-270.8098 238.2011,-281.6612"/>
<polygon fill="#000000" stroke="#000000" points="235.4264,-283.7964 244.1545,-289.8023 241.0768,-279.6644 235.4264,-283.7964"/>
</g>
</g>
</svg>
